<svg xmlns="http://www.w3.org/2000/svg" viewBox="0 0 1278 1278" shape-rendering="geometricPrecision" text-rendering="geometricPrecision" image-rendering="optimizeQuality" fill-rule="evenodd" clip-rule="evenodd"><path d="M1048 67H230c-42 0-79 17-107 44-27 27-44 65-44 107v842c0 42 17 79 44 107 28 27 65 44 107 44h818c41 0 79-17 106-44 28-28 44-65 44-107V952v-2-3l-2-3V838h-114c-27 0-53-5-76-15-25-10-47-25-65-44-18-18-33-40-43-64s-15-49-15-76 5-53 15-76c10-25 25-47 43-65l15-15 1 1c15-12 31-22 49-29 23-10 49-15 76-15h116V218c0-42-16-80-44-107-27-27-65-44-106-44zM230 25h818c53 0 101 22 136 57s56 83 56 136v264h-167c-18 1-35 5-51 11-19 8-37 20-51 35l-6 5c-12 13-22 29-29 46-7 18-12 38-12 60 0 21 5 41 12 60 8 19 20 36 34 51 15 14 32 26 52 34 18 8 38 12 60 12h156v141c0 2 1 4 1 5 1 4 1 7 1 10v108c0 53-21 101-56 136s-83 56-136 56H230c-53 0-101-21-136-56s-56-83-56-136V218c0-53 21-101 56-136s83-57 136-57zm338 948c4 0 7-2 10-4 2-2 4-6 4-10v-64h35c40 0 76-16 102-42s42-62 42-102c0-27-8-53-21-75-14-22-34-41-58-53l-24-12 18-20c10-11 17-24 23-39 5-13 8-28 8-43 0-32-12-60-31-82-19-23-46-38-77-43l-17-2v-64c0-3-2-7-4-9-3-3-6-4-10-4s-7 1-10 4c-2 2-3 5-3 9v65H454v-65c0-4-1-7-4-9-2-3-6-4-9-4-4 0-7 1-10 4-2 2-4 6-4 9v65H321c-4 0-7 1-10 4-2 2-4 6-4 9 0 4 2 8 4 10 3 2 6 4 10 4h54v458h-54c-4 0-7 1-10 4-2 2-4 6-4 9 0 4 2 7 4 10 3 2 6 4 10 4h106v64c0 4 2 8 4 10s6 4 10 4c3 0 7-2 9-4 3-2 4-6 4-10v-64h101v64c0 4 1 8 3 10 3 2 6 4 10 4zm39 25c-10 10-24 17-39 17s-29-7-39-17-16-23-16-39v-23h-17v23c0 16-6 29-16 39s-24 17-39 17-29-7-39-17-17-23-17-39v-23h-64c-15 0-29-6-39-16s-16-24-16-39 6-29 16-39 24-16 39-16h13V452h-13c-15 0-29-7-39-17-10-9-16-23-16-39 0-15 6-28 16-39 10-10 24-16 39-16h64v-23c0-15 7-29 17-39s23-16 39-16c15 0 29 6 39 16s16 24 16 39v23h17v-23c0-15 6-29 16-39s24-16 39-16 29 6 39 16 16 24 16 39v29c33 9 63 27 85 53 25 29 40 67 40 109 0 20-4 40-10 58-5 11-10 21-16 31 21 15 40 34 53 56 18 28 28 62 28 97 0 51-21 97-55 131-32 32-76 53-125 54v23c0 16-6 29-16 39zm10-130H402V634h215c32 0 61 13 83 35 21 21 34 50 34 82s-13 61-34 82c-22 22-51 35-83 35zm-173-42h173c21 0 40-8 53-22 14-13 22-32 22-53s-8-39-22-53c-13-14-32-22-53-22H444v150zm235-317c0 27-11 52-28 69-18 18-43 29-70 29H402V410h179c27 0 52 11 70 29 17 18 28 42 28 70zm-58 40c10-10 17-25 17-40 0-16-7-30-17-41-10-10-24-16-40-16H444v114h137c16 0 30-7 40-17zm475 90c0-5-2-9-4-12-3-2-7-4-12-4-4 0-8 2-11 4-3 3-5 7-5 12 0 4 2 8 5 11s7 5 11 5c5 0 9-2 12-5 2-3 4-7 4-11zm25-41c10 11 17 25 17 41s-7 30-17 41c-11 10-25 17-41 17s-30-7-41-17c-10-11-17-25-17-41s7-30 17-41c11-10 25-17 41-17s30 7 41 17zm90 157h-129c-32 0-61-13-82-34s-34-50-34-82 13-61 34-82 50-34 82-34h150v232h-21zm-129-42h108V565h-108c-21 0-39 8-53 21-13 14-21 32-21 53 0 20 8 39 21 52 14 14 32 22 53 22z" fill="#21a385" fill-rule="nonzero"/></svg>