<svg xmlns="http://www.w3.org/2000/svg" viewBox="0 0 1278 1278" shape-rendering="geometricPrecision" text-rendering="geometricPrecision" image-rendering="optimizeQuality" fill-rule="evenodd" clip-rule="evenodd"><path d="M335 412V266c0-61 26-116 71-157 44-41 102-63 163-63h141c59 0 118 22 162 63s70 96 70 157v144H822V267c0-27-11-51-30-70-21-19-50-31-78-31H564c-29 0-57 12-78 31-19 19-31 43-31 70v145H335zm-34 68h676c55 0 101 46 101 101v549c0 56-46 102-101 102H301c-55 0-101-46-101-102V581c0-55 46-101 101-101zm338 384c37 0 68 30 68 67 0 26-16 49-37 60v154h-62V991c-21-11-36-34-36-60 0-37 29-67 67-67zm312-266h52L895 752h-52l108-154zm-190 0h52L706 752h-52l107-154zm-189 0h52L517 752h-53l108-154zm-189 0h52L327 752h-52l108-154zm-6-332v104h37V267c0-19 4-37 11-54 8-17 19-33 33-46s30-24 49-31c18-8 37-12 57-12h150c19 0 39 4 57 11 18 8 35 18 49 32l2 1c13 13 24 28 31 45s11 35 11 54v101h37V266c0-24-5-47-15-68-9-22-24-42-42-59-18-16-39-29-62-38-22-9-47-13-72-13H569c-26 0-51 4-74 13-22 9-43 22-61 38-18 17-33 37-43 59-9 21-14 44-14 68zm600 256H301c-16 0-31 7-42 17-11 11-17 26-17 42v146l107-153 12-18h154l-46 65-108 155-12 18H242v336c0 17 6 32 17 42v1c11 10 26 17 42 17h676c16 0 31-7 42-17v-1c10-10 17-25 17-42V622L929 776l-12 18H763l46-66 108-154 12-18h101c-3-6-6-12-11-17-11-10-26-17-42-17zM639 822c30 0 57 12 77 32s32 47 32 77c0 21-6 40-16 57-6 9-13 17-20 24v175H566v-175c-8-7-14-15-20-24-10-17-16-36-16-57 0-30 12-57 32-77s47-32 77-32zm122-266h132l-46 65-107 155-13 18H574l46-66 107-154 13-18h21zm-189 0h132l-46 65-107 155-13 18H385l45-66 108-154 12-18h22z" fill="#21a385"/></svg>