<svg xmlns="http://www.w3.org/2000/svg" viewBox="0 0 1278 1278" shape-rendering="geometricPrecision" text-rendering="geometricPrecision" image-rendering="optimizeQuality" fill-rule="evenodd" clip-rule="evenodd"><path d="M1090 250c-33-1-66-5-99-11-43-8-85-20-126-34-42-15-83-33-122-52-37-19-73-39-104-59-32 20-67 40-105 59s-79 37-122 52c-40 14-82 26-125 34-33 6-67 10-100 11v23c1 166 12 331 59 479 47 147 129 276 272 372 20 13 40 25 62 37 19 10 39 19 59 28 20-9 39-18 58-28 22-11 42-23 62-36 136-91 216-211 263-347 48-138 62-293 66-451v-1c1-25 1-50 2-76zM544 461v143c0 17-4 31-11 43-8 13-18 22-32 29-14 6-30 10-49 10-28 0-51-8-66-22-16-15-24-35-24-60V461h47v136c0 17 3 29 10 37s18 12 34 12c15 0 27-4 34-12 6-8 10-20 10-38V461h47zm277 221h-46V461h126v39h-80v57h75v38h-75v87zm-84 0H582v-32l56-56c16-17 27-29 32-35 5-7 9-13 11-18 2-6 3-12 3-18 0-8-2-15-7-19-5-5-11-7-20-7-8 0-17 2-25 6s-16 10-25 17l-25-30c11-10 20-16 27-20s15-7 23-9c9-2 18-3 29-3 14 0 26 3 36 8 11 5 19 12 25 21s9 19 9 31c0 10-2 20-6 29-3 9-9 18-16 27-8 9-21 23-40 40l-28 27v2h96v39zm262-355c-60 0-123-14-181-34-67-24-130-57-179-89-49 32-112 65-179 89-59 20-121 34-182 34 2 157 12 310 61 441 49 132 138 241 300 309 166-69 252-178 299-309 47-130 55-283 61-441zm-168-74c56 20 115 33 171 33h9c3 0 6-1 9-1l23-1-1 23c-7 169-14 333-65 475-51 143-146 262-330 336l-8 3-8-3c-180-72-278-191-331-336-53-142-62-307-64-476v-22l22 1c3 0 6 1 9 1h9c56 0 115-13 170-33 69-24 133-58 181-91l12-8 12 8c48 33 112 67 180 91zm167-55c37 7 74 11 110 11h25l-1 21c-1 34-2 66-2 97-4 162-19 321-69 464-50 145-135 272-279 368-21 14-43 27-65 39-23 12-46 23-70 33l-8 3-8-3c-25-11-48-22-70-33-23-12-45-25-66-39-152-102-239-239-288-394-49-153-61-323-62-491v-65h25c36 0 73-4 109-11 41-8 81-19 120-32 40-15 80-32 117-50 41-21 79-43 111-65l12-7 11 7c33 22 71 44 112 65 37 18 77 35 117 50 39 13 79 24 119 32z" fill="#fff" fill-rule="nonzero"/></svg>