<svg xmlns="http://www.w3.org/2000/svg" viewBox="0 0 1278 1278" shape-rendering="geometricPrecision" text-rendering="geometricPrecision" image-rendering="optimizeQuality" fill-rule="evenodd" clip-rule="evenodd"><path d="M1092 1210c31 0 33-19 37-54 1-11 2-23 4-37 8-55 18-176 26-274 3-39 6-74 9-110 2-17 3-25 3-33 3-23 5-41 5-53 0-5-5-7-24-7H125c-10 0-21-3-23-2l1 7c5 86 12 179 20 275 8 95 17 188 28 273 1 5 1 10 2 11 3 2 9 4 24 4h915zM317 26h679c20 0 37 8 50 21s20 30 20 49v458h-41V96c0-7-3-15-9-20-5-5-12-8-20-8H317c-8 0-15 3-20 8s-8 13-8 20v250h-42V96c0-19 8-36 20-49h1c12-13 30-21 49-21zm499 528c-1-9-12-21-14-30-20-31-13-25-69-25h-23c-40 0-87-17-119-51-28-28-58-58-100-58H141c-27 0-53 11-60 40-3 13-12 107-12 124h747zm-700-33h487c-6-5-74-74-80-78-10-7-21-12-33-12H140c-6 0-12 1-16 4-5 3-10 44-8 86zm830-60H677c-9-6-19-14-27-22-5-6-11-11-16-17h312v39zm0-107H362v-39h584v39zm0-94H362v-39h584v39zm0-97H362v-39h584v39zm146 1088c80 0 71-43 82-126 12-83 28-303 35-386 11-114 23-138-57-138H128c-31 0-66-1-67 37v11c12 177 26 376 49 551 3 24 10 51 67 51h915z" fill="#21a385"/></svg>