<svg xmlns="http://www.w3.org/2000/svg" width="90" height="90" viewBox="0 0 1250 1250" shape-rendering="geometricPrecision" text-rendering="geometricPrecision" image-rendering="optimizeQuality" fill-rule="evenodd" clip-rule="evenodd"><path d="M702 482c-4 4-10 7-15 7H564c-18 0-33 7-44 18s-18 27-18 44v150l9-9c4-4 9-6 15-6 5 0 10 2 14 6l1 1 1 1c2 4 4 9 4 14 0 3-1 5-1 8-1 3-3 5-5 7l-37 37c-3 3-6 6-10 7-4 2-8 2-12 2-5 0-8 0-12-2-4-1-7-4-11-7l-37-37-1-1v-1c-2-4-4-9-4-13v-9c1-3 3-6 7-8l6-3c2-1 5-1 8-1s6 0 8 1c3 1 5 2 7 4l9 9V551c0-29 12-55 31-74 19-18 45-30 73-30h122c5 0 11 2 15 6 3 4 6 9 6 15 0 5-3 10-6 14zm-77 546c17 0 31 14 31 31s-14 31-31 31-31-14-31-31 14-31 31-31zm312-886c-8-6-16-10-25-13-10-3-21-4-32-4H368c-11 0-22 1-32 4-9 3-18 7-25 13-7 7-12 15-15 23s-4 18-4 28v861c0 3 0 8 1 12 0 4 1 8 2 13 5 13 14 25 26 33 13 8 30 13 49 13h510c19 0 36-5 49-13 12-8 21-20 26-33 1-5 2-9 2-13 1-4 1-9 1-12V194c0-10-1-20-5-28-3-9-8-17-16-24zm-14-53c15 4 29 11 41 22l1 1c12 11 21 24 27 38s8 29 8 44v860c0 5-1 12-2 18 0 6-1 11-3 16v2c-8 24-23 43-44 57-19 12-44 20-71 20H370c-27 0-52-8-71-20-21-14-36-33-44-57v-2c-2-5-3-10-3-16-1-6-2-13-2-18V193c0-15 2-29 7-43s13-27 26-38l1-1c12-11 26-18 41-22 13-4 28-6 43-6h512c15 0 29 2 43 6zm-20 911H333V208h584v792h-14zm-278-28h264V236H361v736h264zm-69-212c4-4 9-6 15-6h121c18 0 33-7 44-19 11-11 18-26 18-43V541l-9 9c-4 4-10 6-15 6s-10-2-14-6l-1-1-1-1s0-1-1-1c-1-4-3-6-3-12 0-3 1-6 1-8 1-4 3-6 5-8l37-37c3-3 6-5 10-7 4-1 8-2 12-2 9 0 16 2 23 9l37 37v1l1 1c2 4 4 9 4 14 0 3 0 6-1 8-1 3-3 6-4 7-4 4-10 6-15 6s-10-2-14-6l-10-9v151c0 28-12 54-30 73-19 19-45 31-74 31H571c-6 0-11-3-15-7s-6-9-6-14c0-6 2-11 6-15z"/></svg>