<svg xmlns="http://www.w3.org/2000/svg" width="90" height="90" viewBox="0 0 1250 1250" shape-rendering="geometricPrecision" text-rendering="geometricPrecision" image-rendering="optimizeQuality" fill-rule="evenodd" clip-rule="evenodd"><path d="M1132 916H118c-4 0-7 2-10 5-2 2-4 6-4 10v207c0 4 2 8 4 11 3 2 6 4 10 4h1014c4 0 7-2 10-4 2-3 4-7 4-11V931c0-4-2-8-4-10-3-3-6-5-10-5zm-895 174c-30 0-55-24-55-55 0-30 25-55 55-55 31 0 56 25 56 55 0 31-25 55-56 55zm157 0c-31 0-55-24-55-55 0-30 24-55 55-55 30 0 55 25 55 55 0 31-25 55-55 55zm156 0c-31 0-55-24-55-55 0-30 24-55 55-55 30 0 55 25 55 55 0 31-25 55-55 55zm156 0c-30 0-55-24-55-55 0-30 25-55 55-55 31 0 55 25 55 55 0 31-24 55-55 55zm156 0c-30 0-55-24-55-55 0-30 25-55 55-55 31 0 55 25 55 55 0 31-24 55-55 55zm157 0c-31 0-55-24-55-55 0-30 24-55 55-55 30 0 55 25 55 55 0 31-25 55-55 55zM476 698h312c15 0 27-12 27-26V408c0-15-12-27-27-27h-20v-67c0-75-61-136-136-136s-136 61-136 136v67h-20c-15 0-27 12-27 27v264c0 14 12 26 27 26zm10-281h292v250H486V417zm53-107c0-48 41-88 91-88 51 0 92 40 92 88v71H539v-71zm93 513c101 0 192-41 259-108 66-66 107-158 107-258 0-101-41-193-107-259-67-67-158-108-259-108s-193 41-259 108c-66 66-107 158-107 259 0 100 41 192 107 258 66 67 158 108 259 108zm288-78c-74 74-176 119-288 119-113 0-214-45-288-119S224 569 224 457c0-113 46-215 120-289S519 49 632 49c112 0 214 45 288 119s120 176 120 289c0 112-46 214-120 288zm212 144H118c-23 0-42 19-42 42v207c0 24 19 42 42 42h1014c23 0 42-18 42-42V931c0-23-19-42-42-42z"/></svg>