<svg xmlns="http://www.w3.org/2000/svg" width="90" height="90" viewBox="0 0 1250 1250" shape-rendering="geometricPrecision" text-rendering="geometricPrecision" image-rendering="optimizeQuality" fill-rule="evenodd" clip-rule="evenodd"><path d="M210 337c14 0 27-4 39-11l126 125c-5 6-9 12-13 19l49 31c10-17 22-32 36-46l-40-41c-5 4-10 9-14 14L269 305c7-11 11-24 11-38 0-38-32-70-70-70-39 0-70 32-70 70 0 39 31 70 70 70zm224-77c15 21 40 31 64 29l17 57c-8 3-16 6-23 9l24 53c18-8 36-14 55-18l-11-57c-5 2-11 3-17 4l-17-56c2-1 4-2 6-4 31-22 39-65 17-97s-65-40-97-18-40 66-18 98zm91-64c13 19 9 45-10 57-18 13-44 9-57-10s-8-44 10-57c19-13 45-8 57 10zm350 280l-50 29c10 17 18 35 24 53l55-16c-2-8-5-16-8-23l91-47c4 5 9 10 15 14 32 21 76 12 97-20s12-76-20-97-76-12-97 20c-12 17-14 38-9 57l-88 47c-3-6-6-12-10-17zm188-83c19 13 24 38 12 57-13 19-38 24-57 12-19-13-24-38-12-57 13-19 38-24 57-12zM317 654c2 24 7 47 15 70l55-18c-6-19-10-38-12-57l-58 5zm325-267l6-57c-24-3-48-2-72 1l8 57c19-2 39-3 58-1zm-289 97c-11 21-20 43-26 66l55 15c5-18 13-36 22-53l-51-28zm151-70l-27-52c-21 11-41 25-59 41l38 43c15-12 31-23 48-32zm178 448l15 56c24-7 46-16 67-28l-29-50c-16 9-35 17-53 22zm-152-7c-19-7-36-16-52-27l-33 47c20 14 41 25 64 34l21-54zm-98 11l36-46c-15-12-29-26-41-41l-46 36c5 5 9 11 14 16L249 972c-12-7-25-12-39-12-39 0-70 32-70 70 0 39 31 70 70 70 38 0 70-31 70-70 0-13-4-26-11-37l146-142c6 5 11 10 17 15zm-222 205c-23 0-41-18-41-41 0-22 18-41 41-41 22 0 41 19 41 41 0 23-19 41-41 41zm407-200h-5l-2 58h7c22 0 44-3 65-7l-13-57c-17 4-35 6-52 6zM419 769c-11-16-21-33-28-51l-54 21c9 22 21 44 35 63l47-33zm401-361l-39 42c14 13 27 28 38 44l48-32c-14-20-29-38-47-54zm95 258c1-12 2-25 2-38 0-24-3-48-9-71l-56 14c5 19 7 38 7 57 0 11-1 21-2 31l58 7zM744 358l-25 52c17 9 33 19 48 32l37-45c-6-5-12-10-19-14l50-89c6 2 13 3 20 3 39 0 70-32 70-70 0-39-31-70-70-70s-70 31-70 70c0 21 9 40 24 53l-48 87c-6-3-11-6-17-9zm111-172c23 0 41 18 41 41 0 22-18 41-41 41s-41-19-41-41c0-23 18-41 41-41zm29 579l-51-26c-9 17-20 33-33 48l44 38c16-19 29-39 40-60zM733 352c-22-10-45-16-69-20l-9 57c19 3 38 8 56 16l22-53zm-73 434v-41c31-5 55-32 55-65 0-24-13-45-32-57 11-12 19-28 19-46 0-28-18-52-42-62v-44h-29v40h-18v-40h-29v40h-52v28h19v178h-19v29h52v40h29v-40h18v40h29zm-80-247h55c21 0 38 17 38 38 0 20-17 37-38 37h-55v-75zm0 104h69c21 0 38 17 38 37 0 21-17 37-38 37h-69v-74zm368 317c-11 0-22 3-32 8l-97-117c5-5 10-10 14-15l-42-40c-13 14-28 27-44 37l31 49c6-4 12-8 18-13l98 118c-10 12-16 27-16 43 0 39 32 70 70 70 39 0 70-31 70-70 0-38-31-70-70-70zm0 111c-22 0-41-18-41-41 0-22 19-41 41-41 23 0 41 19 41 41 0 23-18 41-41 41zM566 967l8-41c7 1 14 1 20 2l5-58c-20-1-39-5-57-11l-18 55c7 2 14 5 22 6l-8 40h-2c-39 0-70 32-70 70 0 39 31 70 70 70s70-31 70-70c0-28-16-52-40-63zm-30 104c-23 0-41-18-41-41 0-22 18-41 41-41s41 19 41 41c0 23-18 41-41 41zm488-382c-26 0-49 14-61 35l-56-18c2-8 4-16 5-24l-57-10c-3 19-9 37-17 55l53 24c2-6 5-12 7-17l56 18v7c0 39 31 70 70 70 38 0 70-31 70-70s-32-70-70-70zm0 111c-23 0-41-18-41-41s18-41 41-41c22 0 41 18 41 41s-19 41-41 41zM210 664c31 0 58-21 67-49l40 3c-1 3-1 7-1 10v10l58-2v-8c0-17 2-34 5-50l-56-12c-2 8-3 15-4 23l-40-3c-4-35-34-61-69-61-39 0-70 31-70 69 0 39 31 70 70 70zm0-111c22 0 41 19 41 41 0 23-19 42-41 42-23 0-41-19-41-42 0-22 18-41 41-41zm0-327c22 0 41 19 41 41 0 23-19 41-41 41-23 0-41-18-41-41 0-22 18-41 41-41z"/></svg>