<svg xmlns="http://www.w3.org/2000/svg" width="28" height="27" viewBox="0 0 28 27">
    <g fill="#FFF" fill-rule="nonzero">
        <path d="M4.102 27h19.796C26.16 27 28 25.226 28 23.045V3.955C28 1.775 26.16 0 23.898 0H4.102C1.84 0 0 1.774 0 3.955v19.09C0 25.225 1.84 27 4.102 27zM1.64 3.955c0-1.308 1.104-2.373 2.46-2.373h19.797c1.357 0 2.461 1.065 2.461 2.373v19.09c0 1.308-1.104 2.373-2.46 2.373H4.101c-1.357 0-2.461-1.065-2.461-2.373V3.955z"/>
        <path d="M14 20.62c4.07 0 7.383-3.195 7.383-7.12 0-3.925-3.312-7.12-7.383-7.12-4.07 0-7.383 3.195-7.383 7.12 0 3.925 3.312 7.12 7.383 7.12zm0-12.657c3.166 0 5.742 2.484 5.742 5.537S17.166 19.037 14 19.037 8.258 16.553 8.258 13.5 10.834 7.963 14 7.963zM22.203 7.963c1.357 0 2.461-1.065 2.461-2.373 0-1.309-1.104-2.373-2.46-2.373-1.358 0-2.462 1.064-2.462 2.373 0 1.308 1.104 2.373 2.461 2.373zm0-3.164c.452 0 .82.355.82.79 0 .437-.368.792-.82.792-.452 0-.82-.355-.82-.791 0-.436.368-.791.82-.791z"/>
    </g>
</svg>
