<svg xmlns="http://www.w3.org/2000/svg" width="28" height="16" viewBox="0 0 28 16">
    <path fill="#FFF" fill-rule="nonzero" d="M24.978 10.602l-.015-.013c-.24-.212-.972-.896-1.219-1.195-.29-.372-.223-.617-.005-.983.274-.462.824-1.171 1.406-1.923 1.865-2.405 3.069-4.07 2.82-5.253l-.133-.632-6.885.003c-.025.062-.384 1.577-1.9 4.155-1.1 1.87-1.82 2.457-2.075 2.56l-.04-.011c-.082-.098-.226-.362-.286-1.044-.062-.714-.007-1.578.047-2.413.062-.98.115-1.827-.013-2.432l-.21-.987c-.252-.038-1.177-.38-3.755-.407-2.232-.022-2.887.288-3.21.56l-1.064.902 1.346.434c.512.165.682.356.822 1.302.09.616.138 1.652.04 2.577-.141 1.326-.48 1.573-.497 1.586-.059-.02-.553-.227-1.412-1.968-.595-1.208-1.117-2.636-1.499-3.68C6.805.547 6.883.8 6.661.237H0l.431 1.07c1.797 4.463 3.446 7.95 5.653 10.453 2.438 2.766 5.468 4.215 9.55 4.215h.82v-.787c0-.736.063-1.266.2-1.667.083-.245.193-.447.309-.66.172-.312.34-.445.432-.465.084-.019.23.04.393.156.466.334.836.772 1.227 1.236.566.67 1.15 1.361 2.077 1.814.507.248 1.436.373 1.947.373H28l-.035-.82c-.053-1.225-1.058-2.756-2.987-4.552zM23.07 14.4h-.013c-.353.005-1.025-.106-1.221-.201-.617-.301-1.047-.812-1.547-1.403-.438-.519-.89-1.055-1.522-1.506-.51-.365-.973-.472-1.341-.472a1.85 1.85 0 0 0-.392.041c-.427.093-1.038.387-1.524 1.268-.137.25-.292.535-.418.906-.131.389-.214.82-.253 1.345-3.075-.167-5.475-1.334-7.503-3.635-1.885-2.14-3.369-5.131-4.94-8.934h3.13l.166.452c.411 1.126.975 2.666 1.639 3.98.95 1.882 1.818 2.721 2.814 2.721.497 0 .943-.202 1.289-.585.493-.545.78-1.445.876-2.751.076-1.03.006-2.056-.078-2.622-.068-.465-.167-.953-.406-1.39 1.02-.045 2.385.025 3.25.144.079.41.027 1.218-.022 1.999-.12 1.886-.244 3.833.797 4.744.183.16.378.246.383.25l.53.155c.204-.06 1.388.516 3.63-3.237.72-1.203 1.388-2.589 1.748-3.494.835-.002 3.681.001 4.015.002-.473 1-1.596 2.426-2.33 3.372-.639.825-1.191 1.538-1.515 2.084-.602 1.014-.5 1.918.126 2.715l.01.012c.35.428 1.214 1.218 1.393 1.378 1.299 1.21 1.924 2.078 2.222 2.662h-2.993z"/>
</svg>
