<svg xmlns="http://www.w3.org/2000/svg" width="28" height="27" viewBox="0 0 28 27">
    <path fill="#FFF" fill-rule="nonzero" d="M4.102 27h9.132v-9.598h-3.28v-3.164h3.28v-3.955c0-2.18 1.84-3.955 4.102-3.955h4.102v3.164h-3.282c-.904 0-1.64.71-1.64 1.582v3.164h4.773l-.546 3.164h-4.227V27h7.382C26.16 27 28 25.226 28 23.045V3.955C28 1.775 26.16 0 23.898 0H4.102C1.84 0 0 1.774 0 3.955v19.09C0 25.225 1.84 27 4.102 27zM1.64 3.955c0-1.308 1.104-2.373 2.46-2.373h19.797c1.357 0 2.461 1.065 2.461 2.373v19.09c0 1.308-1.104 2.373-2.46 2.373h-5.743v-6.434h3.976l1.094-6.328h-5.07v-1.582h4.922V4.746h-5.742c-3.166 0-5.742 2.484-5.742 5.537v2.373H8.313v6.328h3.28v6.434H4.103c-1.357 0-2.461-1.065-2.461-2.373V3.955z"/>
</svg>
