<svg xmlns="http://www.w3.org/2000/svg" width="28" height="22" viewBox="0 0 28 22">
    <path fill="#FFF" fill-rule="nonzero" d="M28 2.931c-1.761.078-1.723.072-1.922.088L27.121.166s-3.256 1.147-4.081 1.352C20.872-.348 17.65-.431 15.346.925c-1.887 1.111-2.9 3.019-2.562 5.249-3.671-.488-6.765-2.155-9.207-4.966L2.805.32l-.578 1.015c-.73 1.283-.971 2.75-.682 4.13.119.567.32 1.107.6 1.613l-.662-.246-.079 1.06c-.08 1.078.295 2.335 1.002 3.364.2.29.455.608.78.922l-.342-.05.418 1.215a5.991 5.991 0 0 0 3.17 3.518c-1.478.601-2.673.985-4.636 1.603L0 19.03l1.659.868c.633.332 2.868 1.438 5.076 1.77 4.91.737 10.436.137 14.157-3.073 3.134-2.704 4.163-6.55 3.949-10.551a2.425 2.425 0 0 1 .488-1.628c.695-.889 2.667-3.479 2.671-3.485zm-3.983 2.544a3.951 3.951 0 0 0-.813 2.649c.215 4.037-.931 7.167-3.409 9.304-2.894 2.497-7.561 3.477-12.806 2.689-.95-.143-1.931-.462-2.744-.781 1.646-.543 2.917-1.026 4.97-1.957l2.866-1.299-3.164-.194c-1.516-.093-2.777-.796-3.553-1.938a5.903 5.903 0 0 0 1.204-.193l3.018-.805-3.043-.713c-1.478-.347-2.321-1.194-2.768-1.844a4.357 4.357 0 0 1-.6-1.268c.305.078.661.134 1.235.189l2.816.266-2.231-1.667c-1.608-1.2-2.253-3.005-1.78-4.74 5.017 4.985 10.909 4.61 11.502 4.742-.13-1.215-.134-1.217-.168-1.333-.76-2.571.904-3.877 1.655-4.319 1.568-.923 4.057-1.062 5.781.459.372.328.876.457 1.347.345.423-.1.77-.208 1.11-.324l-.707 1.936h.903c-.17.22-.375.481-.621.796z"/>
</svg>
