<svg xmlns="http://www.w3.org/2000/svg" xmlns:xlink="http://www.w3.org/1999/xlink" width="120" height="45" viewBox="0 0 120 45">
    <defs>
        <path id="a" d="M.042.14h6.686v6.455H.042z"/>
        <path id="c" d="M0 44.224h119.683V.252H0z"/>
    </defs>
    <g fill="none" fill-rule="evenodd">
        <path fill="navy" d="M0 31h120V0H0z"/>
        <g>
            <path fill="#FFF" d="M83.075 14.618c.65-.383 1.136-.82 1.457-1.307a2.89 2.89 0 0 0 .483-1.631c0-.47-.116-.856-.35-1.162-.232-.306-.522-.459-.867-.459-.456 0-.8.197-1.034.59-.232.395-.35.78-.35 1.157 0 .32.046.676.136 1.07.088.393.263.974.525 1.742zm1.218 6.103c-.691-1.172-1.17-2.028-1.437-2.567-.268-.541-.56-1.212-.88-2.013-.629.449-1.101.945-1.417 1.485a3.398 3.398 0 0 0-.476 1.757c0 .697.18 1.308.542 1.836.362.527.848.791 1.462.791a2 2 0 0 0 .953-.245c.308-.162.723-.511 1.253-1.044zm1.782-6.356h3.299v.361c-.456.044-.791.17-1.01.376-.217.204-.556.824-1.016 1.86a21.7 21.7 0 0 1-1.555 2.9c.466.677.882 1.15 1.25 1.42.365.27.734.406 1.105.406.362 0 .668-.123.918-.367.253-.244.43-.603.535-1.079l.29.264c-.192.918-.504 1.595-.934 2.03-.428.436-.928.655-1.5.655-.428 0-.863-.146-1.307-.435-.442-.29-.927-.78-1.45-1.47-.648.717-1.233 1.213-1.754 1.49a3.503 3.503 0 0 1-1.668.415c-.866 0-1.55-.287-2.058-.859-.508-.573-.763-1.257-.763-2.05 0-.788.228-1.575.683-2.359.456-.784 1.312-1.596 2.569-2.436-.246-.677-.414-1.232-.503-1.665a6.184 6.184 0 0 1-.134-1.244c0-1.113.33-1.962.99-2.548.513-.456 1.097-.684 1.752-.684.623 0 1.131.229 1.524.689.393.458.588 1.023.588 1.693 0 .69-.19 1.296-.57 1.815-.379.522-1.05 1.092-2.014 1.71a41.812 41.812 0 0 0 2.081 4.042c.923-1.367 1.383-2.52 1.383-3.455a1.4 1.4 0 0 0-.236-.802.681.681 0 0 0-.495-.312v-.361zM14.522 16.678h-1.917v-.356h3.546v1.335c0 .808-.112 1.519-.335 2.137-.224.616-.518 1.136-.882 1.557-.364.421-.783.742-1.256.961-.473.22-.958.33-1.457.33a3.439 3.439 0 0 1-1.572-.4c-.524-.268-.997-.67-1.418-1.212-.423-.539-.764-1.216-1.027-2.029-.262-.813-.393-1.765-.393-2.857 0-1.092.131-2.044.393-2.857.263-.813.608-1.488 1.036-2.03.428-.538.91-.943 1.448-1.209a3.617 3.617 0 0 1 1.63-.401c.305 0 .585.048.832.142.25.095.464.197.643.303.205.13.384.28.537.445a2.04 2.04 0 0 1 .412-.499c.173-.154.355-.254.547-.302h.287a11.142 11.142 0 0 0-.085 1.06 16.337 16.337 0 0 0 .028 1.681c.012.19.031.374.057.552h-.287c-.294-.984-.688-1.736-1.179-2.251-.492-.517-1.026-.775-1.601-.775-.358 0-.709.095-1.054.285-.345.19-.652.52-.92.988-.27.469-.487 1.098-.652 1.887-.167.789-.25 1.783-.25 2.98 0 1.223.08 2.235.24 3.036.16.801.366 1.44.622 1.913.257.476.535.807.835.998.3.19.597.285.89.285.282 0 .564-.075.844-.223.282-.148.528-.403.74-.766.21-.36.382-.845.516-1.45.135-.605.202-1.364.202-2.279v-.979zM24.491 22.018c0-.498.109-.96.326-1.388.217-.428.491-.795.824-1.104h.192a4.927 4.927 0 0 0-.057.481 11.615 11.615 0 0 0-.039.944c0 .225.003.424.01.595.006.173.015.324.03.455.01.142.03.267.056.374h-7.955v-.179l1.149-.267V10.36l-1.15-.267v-.178h7.764a2.593 2.593 0 0 0-.058.374c-.013.13-.022.282-.028.454a16.988 16.988 0 0 0 0 1.086 9.07 9.07 0 0 0 .086.934h-.191a3.888 3.888 0 0 1-.824-1.103 3.017 3.017 0 0 1-.327-1.389h-3.643v5.34h1.822l.863-1.602h.19v3.56h-.19l-.863-1.602h-1.822v6.052h3.835zM34.076 13.03c0-.89-.256-1.573-.767-2.048-.511-.474-1.245-.711-2.204-.711h-.768v5.517h.768c.959 0 1.693-.237 2.204-.711.511-.475.767-1.158.767-2.048zm-2.97-3.116c.817 0 1.526.084 2.127.25.6.166 1.1.39 1.495.676.396.285.69.614.883.988.19.373.286.774.286 1.201 0 .344-.053.65-.162.916a2.68 2.68 0 0 1-.423.713 2.457 2.457 0 0 1-.602.525 4.82 4.82 0 0 1-.692.356 6.307 6.307 0 0 1-1.859.428 5.52 5.52 0 0 1 1.534.373c.397.167.767.409 1.112.73.345.32.549.753.613 1.299l.383 3.115c.026.226.084.386.174.48a.409.409 0 0 0 .306.143c.064 0 .13-.02.201-.062.07-.041.138-.092.202-.152a.864.864 0 0 0 .172-.23l.193.177a1.29 1.29 0 0 1-.327.41 1.972 1.972 0 0 1-.45.267 1.613 1.613 0 0 1-.66.125c-.436 0-.791-.116-1.066-.348-.275-.23-.432-.5-.47-.81l-.383-3.115a4.011 4.011 0 0 0-.25-1.024 1.852 1.852 0 0 0-.47-.684 1.841 1.841 0 0 0-.756-.393 4.356 4.356 0 0 0-1.112-.124h-.768v5.785l1.15.267v.179h-3.93v-.179l1.151-.267v-11.57l-1.15-.267v-.178h3.547zM42.703 10.003c-.358 0-.709.095-1.054.285-.345.19-.652.52-.92.988-.269.469-.486 1.098-.652 1.887-.166.789-.25 1.783-.25 2.98 0 1.2.084 2.194.25 2.983.166.79.39 1.419.67 1.887.282.469.608.797.978.988.37.19.76.285 1.17.285.333 0 .671-.084 1.017-.25a3.36 3.36 0 0 0 .948-.695 4.09 4.09 0 0 0 .729-1.05c.198-.402.322-.835.373-1.299h.288a4.523 4.523 0 0 1-.383 1.469 4.159 4.159 0 0 1-.776 1.157 3.331 3.331 0 0 1-1.084.757c-.41.178-.844.267-1.304.267a4.03 4.03 0 0 1-1.745-.4c-.562-.268-1.063-.67-1.504-1.212-.441-.539-.793-1.216-1.054-2.029-.263-.813-.394-1.765-.394-2.857 0-1.092.13-2.044.394-2.857.261-.813.606-1.488 1.035-2.03.427-.538.91-.943 1.447-1.209a3.616 3.616 0 0 1 1.63-.401c.306 0 .585.048.833.142.25.095.464.203.642.321.206.13.385.279.538.444.101-.177.24-.347.412-.506.173-.16.354-.264.546-.312h.289a6.316 6.316 0 0 0-.058.534c-.013.166-.023.341-.03.525a17.889 17.889 0 0 0 0 1.14 11.566 11.566 0 0 0 .088 1.094h-.29c-.293-.984-.685-1.736-1.177-2.251-.493-.517-1.027-.775-1.602-.775M50.277 15.966v5.963l1.15.268v.178h-3.93v-.178l1.15-.268v-11.57l-1.15-.267v-.178h3.93v.178l-1.15.267v5.25h3.929v-5.25l-1.15-.267v-.178h3.93v.178l-1.15.267v11.57l1.15.268v.178h-3.93v-.178l1.15-.268v-5.963zM61.491 21.929l1.151.267v.179h-3.931v-.179l1.15-.267v-11.57l-1.15-.267v-.178h3.931v.178l-1.15.267zM67.148 17.746v4.183l1.149.267v.179h-3.93v-.179l1.15-.267V10.36l-1.15-.267v-.178h3.93v.178l-1.15.267v6.764l4.122-6.586-1.246-.445v-.178h2.876v.178l-1.247.445-2.417 3.863 3.854 7.53 1.15.266v.179h-4.12v-.179l1.15-.267-3.03-5.928zM98.684 10.003c-.358 0-.71.095-1.054.285-.346.19-.652.52-.92.988-.27.469-.487 1.098-.653 1.887-.165.789-.249 1.783-.249 2.98 0 1.2.084 2.194.249 2.983.166.79.39 1.419.671 1.887.281.469.607.797.977.988.372.19.762.285 1.17.285.332 0 .67-.084 1.016-.25.345-.166.662-.398.95-.695a4.06 4.06 0 0 0 .727-1.05c.2-.402.324-.835.375-1.299h.287a4.533 4.533 0 0 1-.383 1.469 4.15 4.15 0 0 1-.776 1.157 3.336 3.336 0 0 1-1.083.757c-.41.178-.845.267-1.304.267-.6 0-1.183-.134-1.745-.4-.561-.268-1.064-.67-1.504-1.212-.442-.539-.794-1.216-1.056-2.029-.261-.813-.392-1.765-.392-2.857 0-1.092.131-2.044.392-2.857.262-.813.607-1.488 1.035-2.03.429-.538.913-.943 1.448-1.209a3.616 3.616 0 0 1 1.63-.401c.307 0 .585.048.833.142.25.095.464.203.643.321.204.13.383.279.536.444.104-.177.241-.347.413-.506.172-.16.355-.264.547-.312h.288a9.768 9.768 0 0 0-.087 1.059 15.363 15.363 0 0 0 0 1.14c.006.195.015.377.03.542.011.19.03.374.057.552h-.288c-.296-.984-.687-1.736-1.18-2.251-.492-.517-1.026-.775-1.6-.775M110.186 16.144c0-1.222-.08-2.234-.239-3.035-.16-.8-.37-1.438-.633-1.913-.262-.474-.552-.807-.872-.997-.32-.19-.632-.285-.94-.285-.306 0-.619.095-.94.285-.32.19-.609.523-.87.997-.264.475-.475 1.112-.634 1.913-.16.801-.24 1.813-.24 3.035 0 1.222.08 2.234.24 3.035.16.801.37 1.44.633 1.913.262.476.552.807.871.998.321.19.634.285.94.285.308 0 .62-.095.94-.285.32-.19.61-.522.872-.998.262-.474.472-1.112.633-1.913.16-.801.239-1.813.239-3.035m1.822 0c0 1.092-.132 2.044-.392 2.857-.263.813-.609 1.49-1.037 2.03-.427.54-.91.943-1.447 1.21a3.63 3.63 0 0 1-1.63.4c-.55 0-1.092-.133-1.63-.4-.535-.267-1.018-.67-1.446-1.21-.428-.54-.773-1.217-1.036-2.03-.261-.813-.393-1.765-.393-2.857 0-1.092.132-2.044.393-2.857.263-.813.608-1.488 1.036-2.03.428-.538.91-.943 1.447-1.209a3.62 3.62 0 0 1 1.63-.402c.549 0 1.093.134 1.63.402.536.266 1.019.67 1.446 1.21.428.54.774 1.216 1.037 2.03.26.812.392 1.764.392 2.856"/>
            <path fill="navy" d="M1.723 41.355H.891v1.996h.876c.487 0 .817-.04.991-.115a.955.955 0 0 0 .418-.358.945.945 0 0 0 .158-.522.904.904 0 0 0-.166-.527.997.997 0 0 0-.475-.357c-.205-.078-.528-.117-.97-.117m-.067-2.692H.89v1.891h.592c.474 0 .812-.092 1.012-.275.201-.183.3-.42.3-.711 0-.605-.379-.905-1.14-.905m.45 5.489H0V37.86h1.63c.512 0 .914.07 1.201.21.288.14.507.331.659.576.15.246.227.528.227.85 0 .618-.316 1.06-.948 1.328.454.087.815.276 1.083.567.27.291.404.64.404 1.046 0 .32-.082.607-.245.86a1.778 1.778 0 0 1-.72.616c-.315.16-.71.239-1.185.239M8.139 38.626h-.267v1.986h.338c.451 0 .76-.039.928-.117a.88.88 0 0 0 .392-.353 1.03 1.03 0 0 0 .14-.538.968.968 0 0 0-.156-.538.833.833 0 0 0-.438-.34c-.189-.067-.501-.1-.937-.1zm-1.157 5.526V37.86h1.557c.63 0 1.13.158 1.498.473.37.316.554.742.554 1.28 0 .366-.09.683-.271.95-.18.267-.44.466-.779.598.199.133.393.313.583.541.19.228.457.627.801 1.194.217.357.39.626.52.806l.33.45h-1.059l-.27-.414a1.19 1.19 0 0 0-.054-.077l-.174-.248-.276-.46-.297-.49a4.83 4.83 0 0 0-.505-.617 1.898 1.898 0 0 0-.415-.33c-.123-.069-.33-.101-.622-.101h-.23v2.737h-.891z"/>
            <g transform="translate(13.419 37.63)">
                <mask id="b" fill="#fff">
                    <use xlink:href="#a"/>
                </mask>
                <path fill="navy" d="M3.405.997c-.711 0-1.296.225-1.755.675-.457.45-.687 1.025-.687 1.725 0 .68.23 1.243.69 1.693.459.45 1.035.676 1.726.676.693 0 1.272-.23 1.735-.689.465-.459.697-1.031.697-1.716 0-.667-.232-1.228-.697-1.682C4.651 1.224 4.08.997 3.405.997M3.37.141c.96 0 1.76.308 2.4.923.638.615.958 1.388.958 2.315 0 .928-.322 1.695-.968 2.304-.645.608-1.458.912-2.44.912-.937 0-1.717-.304-2.342-.912-.624-.609-.936-1.37-.936-2.286 0-.94.315-1.718.943-2.333C1.614.449 2.41.14 3.37.14" mask="url(#b)"/>
            </g>
            <path fill="navy" d="M26.58 37.86h1.113l-2.697 2.986 3.36 3.306h-1.214l-3.179-3.108v3.108h-.89V37.86h.89v2.878zM30.865 37.86h3.525v.802h-2.635v1.919h2.546v.806h-2.546v1.955h2.72v.801h-3.61zM38.43 38.626h-.267v1.986h.339c.45 0 .76-.039.928-.117a.88.88 0 0 0 .391-.353 1.03 1.03 0 0 0 .14-.538.968.968 0 0 0-.156-.538.833.833 0 0 0-.437-.34c-.19-.067-.502-.1-.938-.1zm-1.157 5.526V37.86h1.558c.63 0 1.129.158 1.497.473.37.316.555.742.555 1.28 0 .366-.09.683-.272.95-.18.267-.44.466-.779.598.199.133.394.313.583.541.19.228.457.627.801 1.194.218.357.39.626.521.806l.33.45h-1.06l-.27-.414a1.19 1.19 0 0 0-.054-.077l-.174-.248-.275-.46-.298-.49a4.83 4.83 0 0 0-.505-.617 1.898 1.898 0 0 0-.415-.33c-.123-.069-.33-.101-.621-.101h-.232v2.737h-.89zM47.868 41.486l-1.003-2.28-.93 2.28h1.933zm-1.307-3.662h.624l2.79 6.328h-.912l-.829-1.865h-2.653l-.777 1.865h-.914l2.67-6.328zM55.474 41.053h2.087v2.667c-.766.336-1.526.504-2.28.504-1.03 0-1.852-.304-2.468-.912-.614-.608-.923-1.358-.923-2.25 0-.94.32-1.722.957-2.345.638-.626 1.438-.938 2.4-.938.35 0 .681.038.997.115a8.24 8.24 0 0 1 1.192.421v.919c-.741-.436-1.478-.653-2.207-.653-.68 0-1.253.235-1.719.702-.465.469-.699 1.044-.699 1.725 0 .715.234 1.3.7 1.753.465.453 1.065.68 1.797.68.356 0 .782-.083 1.278-.248l.085-.027v-1.31h-1.197v-.803zM60.684 37.86h3.525v.802h-2.635v1.919h2.546v.806h-2.546v1.955h2.72v.801h-3.61zM72.96 41.516l-.676-.416c-.423-.262-.726-.52-.905-.774a1.472 1.472 0 0 1-.27-.875c0-.497.17-.899.51-1.208.34-.309.78-.464 1.324-.464.519 0 .995.148 1.428.443v1.023c-.447-.436-.93-.655-1.446-.655-.29 0-.53.068-.717.205a.62.62 0 0 0-.28.522c0 .187.069.365.207.529.138.165.359.337.664.518l.68.407c.758.46 1.137 1.042 1.137 1.75 0 .505-.166.915-.5 1.23-.334.315-.768.473-1.302.473-.615 0-1.174-.19-1.678-.573v-1.143c.48.616 1.037.924 1.67.924.278 0 .51-.08.695-.236a.742.742 0 0 0 .28-.59c0-.384-.275-.746-.82-1.09M77.418 37.86h3.525v.802H78.31v1.919h2.546v.806h-2.546v1.955h2.72v.801h-3.61zM84.984 38.626h-.267v1.986h.338c.45 0 .76-.039.928-.117a.88.88 0 0 0 .392-.353 1.03 1.03 0 0 0 .14-.538.97.97 0 0 0-.156-.538.834.834 0 0 0-.438-.34c-.189-.067-.501-.1-.937-.1zm-1.158 5.526V37.86h1.558c.63 0 1.129.158 1.498.473.37.316.555.742.555 1.28 0 .366-.091.683-.272.95-.181.267-.441.466-.78.598.2.133.394.313.584.541.19.228.457.627.8 1.194.218.357.391.626.522.806l.329.45H87.56l-.27-.414a1.246 1.246 0 0 0-.054-.077l-.174-.248-.276-.46-.297-.49a4.828 4.828 0 0 0-.506-.617 1.88 1.88 0 0 0-.414-.33c-.124-.069-.33-.101-.622-.101h-.23v2.737h-.892zM94.337 37.86h.887l-2.63 6.32h-.2l-2.68-6.32h.895l1.87 4.419z"/>
            <mask id="d" fill="#fff">
                <use xlink:href="#c"/>
            </mask>
            <path fill="navy" d="M97.736 44.152h.89V37.86h-.89zM107.189 42.693v.99c-.653.36-1.407.541-2.261.541-.694 0-1.283-.14-1.767-.423a3.095 3.095 0 0 1-1.149-1.166 3.204 3.204 0 0 1-.423-1.609c0-.915.323-1.685.968-2.31.646-.625 1.441-.937 2.388-.937.653 0 1.378.173 2.177.518v.969c-.727-.42-1.438-.63-2.132-.63-.712 0-1.303.226-1.774.682-.47.454-.705 1.024-.705 1.708 0 .692.23 1.259.694 1.703.463.445 1.055.667 1.776.667.753 0 1.49-.235 2.208-.703M110.106 37.86h3.525v.802h-2.634v1.919h2.545v.806h-2.545v1.955h2.72v.801h-3.611zM118.028 41.516l-.677-.416c-.424-.262-.726-.52-.905-.774a1.472 1.472 0 0 1-.27-.875c0-.497.17-.899.51-1.208.339-.309.781-.464 1.323-.464.52 0 .996.148 1.43.443v1.023c-.448-.436-.931-.655-1.447-.655-.291 0-.53.068-.717.205a.62.62 0 0 0-.28.522c0 .187.068.365.207.529.137.165.359.337.664.518l.68.407c.758.46 1.137 1.042 1.137 1.75 0 .505-.167.915-.5 1.23-.334.315-.768.473-1.302.473-.615 0-1.174-.19-1.679-.573v-1.143c.481.616 1.037.924 1.67.924.279 0 .511-.08.696-.236a.742.742 0 0 0 .28-.59c0-.384-.275-.746-.82-1.09" mask="url(#d)"/>
        </g>
    </g>
</svg>
