<svg xmlns="http://www.w3.org/2000/svg" width="80" height="80" viewBox="0 0 833 833" shape-rendering="geometricPrecision" text-rendering="geometricPrecision" image-rendering="optimizeQuality" fill-rule="evenodd" clip-rule="evenodd"><path d="M338 696v-20c0-11 8-20 20-20h118c10 1 19 9 19 20v20c0 16-12 29-28 32l-5 18c-2 10-11 16-21 16h-49c-11 0-20-6-22-16l-5-18c-15-3-27-16-27-32zm79-520c10 0 19-9 19-19V90c0-11-9-19-19-19s-19 8-19 19v67c0 10 9 19 19 19zM106 419h67c10 0 19-8 19-18 0-11-8-19-19-19h-67c-10 0-19 8-19 19 0 10 9 18 19 18zm535-19c0 10 9 19 19 19h67c11 0 19-9 19-19 1-11-8-19-19-19h-67c-10 0-19 8-19 19zM258 559c-7-7-19-7-27 0l-47 48c-8 7-8 19 0 27 3 3 8 6 13 6s10-3 13-6l48-48c7-7 7-19 0-27zm332-312c4 0 9-2 13-6l47-47c8-8 8-20 0-27-7-8-19-8-27 0l-47 47c-8 8-8 20 0 27 4 4 9 6 14 6zm-359-6c4 4 9 6 13 6 5 0 10-2 14-6 7-7 7-19 0-27l-48-47c-7-8-19-8-27 0-8 7-8 19 0 27l48 47zm392 393c4 3 8 6 13 6s10-3 14-6c7-8 7-20 0-27l-47-48c-8-7-20-7-27 0-8 8-8 20 0 27l47 48zM239 405c-1-98 77-178 175-179h2c97 0 178 79 178 177 0 45-18 90-50 123-18 19-30 42-33 67-4 23-23 39-46 39h-98c-23 0-42-16-45-39-4-25-16-49-34-67-30-34-48-76-49-121zm39-1c1 35 14 69 39 94 23 23 39 56 44 88 1 5 4 6 7 6h30V479l-40-41c-7-7-7-19 0-26s18-7 25 0l33 33 33-33c7-7 19-7 26 0s7 19 0 26l-41 41v114h31c3 0 6-3 6-6 5-33 21-64 45-89s38-60 38-95c0-76-62-138-139-138h-1c-75 0-137 63-136 139z"/></svg>