<svg xmlns="http://www.w3.org/2000/svg" width="80" height="80" viewBox="0 0 833 833" shape-rendering="geometricPrecision" text-rendering="geometricPrecision" image-rendering="optimizeQuality" fill-rule="evenodd" clip-rule="evenodd"><path d="M169 98h496c23 0 44 10 60 25 15 16 25 37 25 61v384c0 24-10 45-25 61-16 15-37 25-60 25H431v81h-28v-81H169c-24 0-45-10-61-25-15-16-25-37-25-61V184c0-24 10-45 25-61 16-15 37-25 61-25zm246 155c-8 0-14 6-14 14v111H290c-8 0-14 6-14 14 0 77 62 140 139 140s140-63 140-140-63-139-140-139zm0 250c-56 0-102-42-109-96h109c8 0 15-7 15-15V282c54 7 96 54 96 110 0 61-50 111-111 111zm-41-265c-59 0-106 47-106 105 0 8 6 15 14 15h92c8 0 14-7 14-15v-91c0-8-6-14-14-14zm-15 91h-61c6-31 30-55 61-61v61zm306-203H169c-16 0-31 6-41 17-10 10-17 25-17 41v384c0 16 7 31 17 41s25 17 41 17h496c15 0 30-7 40-17 11-10 17-25 17-41V184c0-16-6-31-17-41-10-11-25-17-40-17z" fill-rule="nonzero"/></svg>