<svg xmlns="http://www.w3.org/2000/svg" width="119.999" height="119.999" viewBox="0 0 1250 1250" shape-rendering="geometricPrecision" text-rendering="geometricPrecision" image-rendering="optimizeQuality" fill-rule="evenodd" clip-rule="evenodd"><path d="M655 299l66 138h330c2 0 3 0 5 1 5 1 28 9 43 25 2 3 6 7 11 12 26 26 83 88 82 121-1 19-3 23-14 42-13 21-119 143-150 181-3 5-37 53-83 55h-3l-86 2 14 73 6 28-26-14-181-97c-2 1-4 1-6 1h-50l-178 96-26 14 6-28 14-75H200c-12 0-26-6-52-33-32-33-76-63-86-108-2-8-4-18-4-28 0-15 2-26 7-37 19-45 136-163 166-197 3-5 17-25 38-33 2-1 5-1 7-1h288l66-138 12-26 13 26zm80 400h27c0 28-3 54-6 81h-16c-2-27-5-53-5-81zm-212-33h-64v-87h22v69h42v18zm118 0h-23l-26-71h-44v16h42v17h-42v20h47v18h-69v-88h85l19 56 18-56h23c-9 26-20 59-30 88zm109-71h-46v16h43v17h-43v20h48v18h-70v-88h68v17zm68 71h-65v-87h22v69h43v18zM622 766c0 8-1 14-2 18 0 5-3 9-6 13-3 3-7 6-12 8s-12 3-20 3h-5c-10 0-17-1-22-3-6-2-10-5-13-9s-5-8-6-12-1-10-1-18c-1-22-1-44-1-67h26v61c0 7 1 11 1 13 1 4 3 8 6 10 3 3 7 4 12 4s8-1 11-3c3-3 5-6 5-9 1-3 1-7 1-13 1-21 0-42 0-63h26c0 23 1 45 0 67zm99-16c-2 5-5 8-8 11-4 2-8 4-11 5-11 2-25 1-36 1v40h-26V699c9 0 55-1 64 2 6 1 11 5 15 10 7 9 8 29 2 39zm-26-25c-2-2-5-4-8-4-6-1-15-1-21-1v27c7 0 18 0 23-2 3-1 5-3 7-5 3-5 3-10-1-15zm66 82h-25v-23h25v23zm294-336H738l10 22h50c7 0 13 5 14 12v3c0 2 1 3 1 5h1c0 1 1 2 2 3l128 17c-3-6-4-13-3-20 2-18 22-31 40-31 12 0 22 4 29 12 8 7 12 18 12 29 0 27-48 61-66 78h192c1-5 1-10 1-16 2-21-45-67-68-91-6-5-10-9-12-12-4-4-9-8-14-11zm-532 0H380v56l143-20v-36zm-171 0h-77c-7 6-12 14-13 15s-1 2-2 2c0 0-26 31-57 66h75l-14-12 30-4 58-7v-60zm643 52c0-4-2-7-4-10-3-2-6-4-10-4-12 0-17 14-11 22 3 5 10 7 15 5 6-2 10-7 10-13zm-69 106l-28 25c1 3 1 6 1 8v1c0 11-5 22-12 29-7 8-18 12-29 12-4 0-9 0-12-2l-14 13 17 124h57V710c0-8 6-14 14-14h164l1-2c27-30 43-50 53-65H926zm-618-47H179c-21 24-41 46-53 60h246l-64-60zm334-229l-91 175-3 7h-8c-70 9-126 21-196 31l140 139 5 6-1 7-30 190 178-85 6-3 7 3 181 91c-13-70-19-122-32-199-1-4 1-9 5-12 48-48 89-87 138-136-67-9-129-23-196-32-11-1-11-3-15-11l-88-171zm419 370H934v116c35-1 57-35 57-35 1 0 1-1 1-1s26-31 69-80zm-620 71c1-2 1-4 1-7l1-1 11-64-56-54c-3 1-5 2-9 2H103c-2 3-4 6-5 9-3 7-4 15-4 26 0 8 1 15 2 22 2 5 3 10 5 13h164c2-6 6-11 10-15 8-8 18-12 29-12 12 0 22 4 29 12 1 0 1 0 1 1 7 7 12 17 12 28s-5 22-13 29v1c-8 7-18 11-29 11s-21-4-29-12c-4-4-8-9-10-15H124c16 16 37 38 52 54 17 18 25 17 31 17h227l7-45zm-146-50c-3 3-4 6-4 10s1 7 4 9c2 3 6 4 9 4 4 0 7-1 9-3l1-1c2-2 4-5 4-9s-2-7-4-9v-1c-3-2-6-4-10-4-3 0-7 2-9 4z" fill-rule="nonzero"/></svg>