<svg xmlns="http://www.w3.org/2000/svg" width="80" height="80" viewBox="0 0 833 833" shape-rendering="geometricPrecision" text-rendering="geometricPrecision" image-rendering="optimizeQuality" fill-rule="evenodd" clip-rule="evenodd"><path d="M737 109l-112 7h-1v1c-9 22-18 43-28 65-165 14-308 26-473 39-43 4-54 10-47 56 8 54 13 96 22 153 5 34 36 38 73 38 121-1 209 0 330 0-22 56-19 98-74 100l-312 12c-47 2-53 30-7 29 110-2 220-3 329-5 43-2 50-23 62-42l156-409c36-1 53-1 89-2 21-7 21-35-7-42zM522 673c0-29-23-52-52-52s-52 23-52 52c0 28 23 51 52 51s52-23 52-51zm-347 3c0-26-22-48-48-48-27 0-48 22-48 48 0 27 21 48 48 48 26 0 48-21 48-48zm402-435c-9 22-17 44-26 65-7 21-12 18-34 18h-44c-17 0-20 1-20-17v-61c2-10 7-16 19-17 33-2 59-5 93-8 17-1 18 4 12 20zM309 376v27c0 21-4 27-24 27h-30c-23 0-30-4-30-26v-31c0-26 3-28 28-28h26c29 0 30 3 30 31zm-84-77v-31c0-20 4-19 26-21 13-1 23-2 36-3 26-2 22-1 22 25v24c0 30 0 31-28 31h-26c-27 0-30 3-30-25zm146 46h26c25 0 26 2 26 27v28c0 24-2 30-25 30h-33c-24 0-26-4-26-29v-32c0-24 6-24 32-24zm-32-44v-40c0-21 3-21 24-23 18-1 29-2 47-4 15-1 13 5 13 20v47c0 20-8 23-27 23h-30c-21 0-27-2-27-23zm-143-22v25c0 14-3 20-18 20h-35c-21 0-25 1-28-20-1-10-2-16-3-26-3-19 1-20 20-21 15-2 23-3 39-4 25-2 25 1 25 26zm-50 66h21c24 0 29 4 29 28v36c0 19-3 21-22 21h-20c-23 0-24-2-27-24-1-15-3-22-5-35-3-24 1-26 24-26zm307 62v-42c0-16 5-20 22-20h28c21 0 33 2 25 22-6 16-9 24-16 42-6 14-6 21-21 21h-10c-21 0-28-1-28-23z"/></svg>