<svg xmlns="http://www.w3.org/2000/svg" width="80" height="80" viewBox="0 0 833 833" shape-rendering="geometricPrecision" text-rendering="geometricPrecision" image-rendering="optimizeQuality" fill-rule="evenodd" clip-rule="evenodd"><path d="M342 380c0 9 1 16 2 20 2 4 4 6 7 6s5-2 7-6c1-4 2-11 2-20s-1-16-2-20c-2-4-4-6-7-6s-5 2-7 6c-1 5-2 11-2 20zm326-14l37 88 12-13 4-4 6-6 2-1 9-10h1l4-4 15-15c-7-3-17-7-28-12-21-8-44-17-62-23zm20 118l-59-137-13-31 31 12c4 2 6 3 9 3 8 3 9 4 11 5 20 7 49 18 73 27 27 11 49 22 53 28l5 10-8 7-28 28-1 1 1 2 44 43 3 3c0 1 1 2 2 3l6 12-7 4-2 2c-1 1-2 2-3 2l-3 8-13-7c-1 0-2-1-3-2l-3-3-43-43-1-1-2 1-27 27-14 15-8-19zm111 165v-23h-57v-60c-12-3-13-3-22-11-6 4-13 7-20 9v61H519c0 6-1 11-3 16s-6 10-10 15l-4 4h-1c-3 2-6 4-10 6-5 2-11 3-17 3H360c-6 0-12-1-18-3-6-3-11-6-15-10l-4-4v-1c-2-3-4-7-6-10-2-5-3-10-3-16H133V220c0-35 27-37 62-37h457c35 0 48 6 48 41l2 52 43 18c-1-39-1-73-2-112-2-30-13-41-45-40-189-1-360-1-549-1-47 1-53 2-53 49l-5 407v29H34v23c0 6 2 10 4 15 2 6 5 11 10 15 4 5 9 8 15 11 5 1 10 3 15 3h678c5 0 10-2 14-3 6-3 11-6 16-11 4-4 7-9 10-15 2-5 3-9 3-15zm28-31v28c0 10-2 20-5 29-4 9-10 17-17 24s-15 13-24 16c-9 4-18 6-29 6H81c-10 0-20-2-29-6-9-3-17-9-24-16s-12-15-16-24-6-19-6-29v-21c0-27 6-27 33-27h24v-1-402c-3-58 4-85 79-82l538-1h27c46 0 64 12 64 58l2 145v21l-20-8-70-30-9-4v-9l-1-47c-1-33-17-27-44-27H215c-33 0-54-8-54 31v355h165c2 0 4 0 6 1s4 2 5 4c2 1 3 3 4 5 0 2 1 4 1 6v10c0 3 0 5 1 7s2 4 4 6 4 3 6 4 4 1 7 1h114c2 0 4 0 6-1 3-1 5-3 6-4h1l3-6c1-2 2-4 2-7v-10-7l4-4c2-2 3-3 6-4 1-1 3-1 5-1h165v-62l15 1h5c5 0 29-13 36-24 15 7 26 18 42 38v48h32c15-2 22 5 25 20zM396 379c0 18-4 31-12 41-8 9-19 14-34 14-13 0-24-5-32-15s-12-23-12-40 4-30 12-39c8-10 19-15 32-15 14 0 25 5 33 15s13 23 13 39zm86-51l-96 173h-35l96-173h35zm-9 121c0 9 1 15 3 19 1 4 3 7 6 7 4 0 6-3 7-7 2-5 2-11 2-19s0-14-2-19c-1-5-3-7-7-7-3 0-5 2-6 6-2 4-3 11-3 20zm54-1c0 18-4 31-12 41-8 9-19 14-33 14s-24-5-32-15-12-23-12-40 4-30 11-40c8-9 19-14 33-14s25 5 33 15 12 23 12 39z" fill-rule="nonzero"/></svg>