<svg xmlns="http://www.w3.org/2000/svg" width="80" height="80" viewBox="0 0 833 833" shape-rendering="geometricPrecision" text-rendering="geometricPrecision" image-rendering="optimizeQuality" fill-rule="evenodd" clip-rule="evenodd"><path d="M417 537h15v149c15 8 35 9 54-1V498c21 0 35-7 36-48v-89c0-11-3-22-8-32-4-7-10-14-17-20l-75 151-5 10-5-10-76-151c-7 6-13 13-17 20-5 10-8 21-8 32v89c2 41 15 48 36 48v187c19 10 40 9 54 1V537h16zm0-137l12-25-12-50-13 50 13 25zm0-116h36v32h-6l4 16 30-61 3-4 5 2s39 16 56 51l4-2 5-2 3 5 16 32v-22h72v22l16-32 3-5 4 2c1 0 58 23 58 79v59c0 45 9 82-31 82v146c2 17-39 19-84 8-26 8-67 10-83-2h-6V528h-9v182c-6 17-69 38-96 0-28 38-91 17-97 0v-5-177h-9v162h-6c-15 12-57 10-83 2-45 11-86 9-84-8V538c-40 0-31-37-31-82v-59c0-56 58-79 58-79l5-2 2 5 16 32v-22h72v22l17-32 2-5 5 2 5 2c17-35 56-51 56-51l5-2 2 4 30 61 4-16h-5v-32h36zm0-40c-16 0-29-6-39-16s-16-24-16-39 6-29 16-39 23-16 39-16c15 0 29 6 39 16s16 24 16 39-6 29-16 39-24 16-39 16zm0-142c-24 0-46 10-62 25-15 16-25 38-25 62s10 45 25 61c16 16 38 25 62 25s45-9 61-25 25-37 25-61-9-46-25-62c-16-15-37-25-61-25zM194 365v-2h1l-1 2zm61-2l-2 4-1-4h3zm-39 44l7-28 8 31-7 14-8-17zm-52 99h-25V397c0-8 2-16 6-24 3-5 7-10 11-14l63 124 5 10 5-10 50-98v273c-13 7-26 9-39 0V547h-31v111c-12 7-24 9-39 0V506h-6zm13-200c12 12 29 20 47 20 19 0 35-8 47-20s20-28 20-47c0-18-8-34-20-46-12-13-28-20-47-20-18 0-35 7-47 20-12 12-19 28-19 46 0 19 7 35 19 47zm23-71c6-6 15-10 24-10 10 0 19 4 25 10s10 15 10 24c0 10-4 19-10 25s-15 10-25 10c-9 0-18-4-24-10-7-6-10-15-10-24 0-10 3-19 10-25zm439 130l1-2h-1v2zm-60-2h-1l2 4 1-4h-2zm38 44l-7-28-8 31 7 14 8-17zm52 99h25V397c0-8-2-16-6-24-2-5-6-10-11-14l-63 124-5 10-5-10-50-98v273c13 7 26 9 39 0V547h32v111c11 7 23 9 39 0V506h5zm-13-200c-12 12-29 20-47 20s-35-8-47-20-19-28-19-47c0-18 7-34 19-46 12-13 29-20 47-20s35 7 47 20c12 12 19 28 19 46 0 19-7 35-19 47zm-22-71c-7-6-15-10-25-10s-18 4-25 10c-6 6-10 15-10 24 0 10 4 19 10 25 7 6 15 10 25 10s18-4 25-10c6-6 10-15 10-24 0-10-4-19-10-25z"/></svg>