<svg xmlns="http://www.w3.org/2000/svg" width="80" height="80" viewBox="0 0 833 833" shape-rendering="geometricPrecision" text-rendering="geometricPrecision" image-rendering="optimizeQuality" fill-rule="evenodd" clip-rule="evenodd"><path d="M67 94v6-6zm-35 79l4-4-4 4zm80-4l4 4-4-4zm-87-6l23-29-23 29zm63 6v333l75-127c-6-8-11-18-11-29 0-12 5-23 13-31h1c8-8 19-13 31-13s23 5 31 13 13 19 13 31c0 9-2 17-7 24l67 78c5-2 11-3 17-3h7l82-153c-7-8-12-19-12-30 0-13 5-24 13-32s19-13 31-13c13 0 24 5 32 13s13 19 13 32c0 9-3 18-8 25l70 91c5-2 10-3 16-3 2 0 5 0 8 1l78-140c-7-8-12-19-12-30 0-12 5-23 13-31s19-13 32-13c12 0 23 5 31 13s13 19 13 31-5 23-13 31-19 13-31 13c-3 0-6 0-9-1l-78 140c7 8 12 19 12 30 0 12-5 24-13 32s-19 13-31 13c-13 0-24-5-32-13s-13-19-13-32c0-9 3-17 8-24l-71-92c-5 2-10 3-15 3-2 0-5 0-8-1l-82 153c8 8 13 19 13 31s-5 23-13 31-19 13-31 13c-13 0-24-5-32-13s-13-19-13-31c0-8 3-16 7-23l-67-78c-5 1-10 3-16 3-4 0-7-1-10-2L88 557v120h645v-24l38 22 37 21-37 22-38 21v-24H53V169H28l3-7 17-28 1-3 18-31 4-6v1l21 36 22 38H88zm598 223h7v264h-34V392h27zM206 494h7v162h-33V494h26zm119 93h7v69h-33v-69h26zm126-161h7v230h-33V426h26zm119 127h7v103h-33V553h26zm3-145c-3-3-7-5-11-5-5 0-9 2-12 5s-5 7-5 11c0 5 2 9 5 12s7 5 12 5c4 0 8-2 11-5s5-7 5-12c0-4-2-8-5-11zm119-214c-3-3-7-5-11-5-5 0-9 2-12 5s-5 7-5 12 2 9 5 12 7 4 12 4c4 0 8-1 11-4s5-7 5-12-2-9-5-12zM329 477c-3-3-7-5-11-5-5 0-9 2-12 5s-5 7-5 12 2 9 5 12 7 4 12 4c4 0 8-1 11-4s5-7 5-12-2-9-5-12zm122-227c-3-3-7-5-12-5-4 0-8 2-11 5s-5 7-5 12c0 4 2 8 5 11s7 5 11 5c5 0 9-2 12-5s5-7 5-11c0-5-2-9-5-12zm-242 84c-3-2-8-4-12-4-5 0-9 2-12 4v1c-3 2-5 7-5 11 0 5 2 9 5 12s7 5 12 5c4 0 9-2 12-5s4-7 4-12c0-4-1-9-4-11v-1z"/></svg>