<?xml version="1.0" encoding="iso-8859-1"?>
<!-- Generator: Adobe Illustrator 19.1.0, SVG Export Plug-In . SVG Version: 6.00 Build 0)  -->
<svg xmlns="http://www.w3.org/2000/svg" xmlns:xlink="http://www.w3.org/1999/xlink" version="1.1" id="Capa_1" x="0px" y="0px" viewBox="0 0 483.3 483.3" style="enable-background:new 0 0 483.3 483.3;" xml:space="preserve" width="512px" height="512px">
<g>
	<g>
		<path d="M446.195,0c-0.4,0-0.7,0-1.1,0c-24.3,1.1-48.5,2.3-72.8,3.4c-3.8,0.2-7.5,0.4-9.6,4.9s0.3,7.1,2.9,9.6    c7.4,7.5,14.8,15,22.4,22.3l-8.3,8.3l-67.2,67.2l-6,6l-14.7,14.7l-55.8,55.8l-2,2l-3.4-3.4l-48-48c-8.1,11.2-13.1,24.9-13.6,39.6    l35,35l14.7,14.7l4,4c3.1,3.1,7.2,4.7,11.3,4.7c0.7,0,1.3-0.1,2-0.1c3.4-0.4,6.7-1.9,9.3-4.5l4-4l69.2-69.2l14.7-14.7l6-6    l67.2-67.2l8.1-8.1l21.9,21.8c2.1,2.1,4,4.3,6.9,4.3c1.1,0,2.3-0.3,3.6-1.1c4.4-2.4,5.3-6.2,5.5-10.6c1-23.7,2.2-47.4,3.3-71    C456.095,3.3,453.095,0,446.195,0z" fill="#56c9b2"/>
		<path d="M32.295,190.9c-6.3,6.3-6.3,16.4,0,22.7l4,4c3.1,3.1,7.2,4.7,11.3,4.7s8.2-1.6,11.3-4.7l30.4-30.4c0-0.6,0-1.2,0-1.7    c0-24.1,5.6-46.8,15.6-67.1L32.295,190.9z" fill="#56c9b2"/>
		<path d="M334.395,176c0.3,3.1,0.5,6.2,0.5,9.3c0,51.5-41.7,93.2-93.2,93.2s-93.2-41.7-93.2-93.2s41.7-93.2,93.2-93.2    c18.6,0,36,5.5,50.6,14.9l27.9-27.9c-21.9-16.2-49.1-25.8-78.4-25.8c-72.9,0-131.9,59.1-131.9,131.9    c0,66.3,48.9,121.1,112.5,130.5v12.5h-7v128.7c0,14.6,11.8,26.4,26.4,26.4c14.6,0,26.4-11.8,26.4-26.4V328.3h-7v-12.5    c63.7-9.4,112.5-64.2,112.5-130.5c0-14.6-2.4-28.7-6.8-41.8L334.395,176z" fill="#56c9b2"/>
	</g>
</g>
<g>
</g>
<g>
</g>
<g>
</g>
<g>
</g>
<g>
</g>
<g>
</g>
<g>
</g>
<g>
</g>
<g>
</g>
<g>
</g>
<g>
</g>
<g>
</g>
<g>
</g>
<g>
</g>
<g>
</g>
</svg>
