<?xml version="1.0" encoding="iso-8859-1"?>
<!-- Generator: Adobe Illustrator 18.0.0, SVG Export Plug-In . SVG Version: 6.00 Build 0)  -->
<!DOCTYPE svg PUBLIC "-//W3C//DTD SVG 1.1//EN" "http://www.w3.org/Graphics/SVG/1.1/DTD/svg11.dtd">
<svg xmlns="http://www.w3.org/2000/svg" xmlns:xlink="http://www.w3.org/1999/xlink" version="1.1" id="Capa_1" x="0px" y="0px" viewBox="0 0 446.648 446.648" style="enable-background:new 0 0 446.648 446.648;" xml:space="preserve" width="512px" height="512px">
<g>
	<path d="M99.393,387.644c19.851,0,36-16.149,36-36s-16.149-36-36-36s-36,16.149-36,36S79.543,387.644,99.393,387.644z    M99.393,335.644c8.822,0,16,7.178,16,16s-7.178,16-16,16s-16-7.178-16-16S90.571,335.644,99.393,335.644z" fill="#56c9b2"/>
	<path d="M73.393,215.644h52c5.522,0,10-4.477,10-10v-126c0-5.523-4.478-10-10-10h-52c-5.522,0-10,4.477-10,10v126   C63.393,211.167,67.871,215.644,73.393,215.644z M83.393,89.644h32v106h-32V89.644z" fill="#56c9b2"/>
	<path d="M426.265,386.593L302.815,10.327c-2.582-7.871-11.061-12.156-18.929-9.576L179.125,35.122   c-0.278-8.04-6.866-14.478-14.974-14.478H34.636c-8.284,0-15,6.716-15,15v396c0,8.284,6.716,15,15,15h129.516   c8.284,0,15-6.716,15-15V145.101l95.547,291.219c2.073,6.319,7.942,10.328,14.25,10.328c1.55,0,3.127-0.242,4.679-0.751   l123.062-40.375c3.78-1.24,6.913-3.931,8.709-7.481S427.506,390.373,426.265,386.593z M149.151,416.644H49.636v-366h99.516V416.644   z M298.527,412.716L184.429,64.955l94.557-31.023l114.098,347.761L298.527,412.716z" fill="#56c9b2"/>
	<path d="M293.419,319.192c-4.341,8.58-5.08,18.337-2.083,27.475c2.998,9.136,9.374,16.559,17.955,20.9   c5.113,2.587,10.646,3.896,16.215,3.896c3.775,0,7.568-0.601,11.259-1.813c18.86-6.188,29.171-26.567,22.984-45.428v0   c-2.998-9.137-9.374-16.559-17.955-20.9c-8.579-4.34-18.337-5.082-27.474-2.083C305.182,304.235,297.761,310.611,293.419,319.192z    M325.558,319.435c2.476,0,4.935,0.582,7.207,1.731c3.813,1.929,6.647,5.229,7.979,9.289c2.75,8.383-1.833,17.44-10.215,20.191   c-4.062,1.332-8.398,1.004-12.211-0.926c-3.813-1.929-6.647-5.228-7.979-9.289c-1.333-4.061-1.004-8.397,0.926-12.21   c1.929-3.813,5.229-6.647,9.289-7.98C322.195,319.703,323.881,319.435,325.558,319.435z" fill="#56c9b2"/>
	<path d="M269.968,59.97c-2.368-1.197-5.112-1.405-7.632-0.579l-49.409,16.211c-2.521,0.827-4.608,2.621-5.806,4.987   c-1.197,2.366-1.405,5.112-0.579,7.632l39.28,119.721c1.383,4.212,5.295,6.885,9.5,6.885c1.033,0,2.085-0.162,3.119-0.501   l49.408-16.21c5.248-1.722,8.106-7.371,6.385-12.619L274.955,65.775C274.128,63.255,272.334,61.167,269.968,59.97z    M261.708,192.205L228.663,91.488l30.406-9.976l33.044,100.718L261.708,192.205z" fill="#56c9b2"/>
</g>
<g>
</g>
<g>
</g>
<g>
</g>
<g>
</g>
<g>
</g>
<g>
</g>
<g>
</g>
<g>
</g>
<g>
</g>
<g>
</g>
<g>
</g>
<g>
</g>
<g>
</g>
<g>
</g>
<g>
</g>
</svg>
