<svg xmlns="http://www.w3.org/2000/svg" width="67" height="82" viewBox="0 0 972 1167" shape-rendering="geometricPrecision" text-rendering="geometricPrecision" image-rendering="optimizeQuality" fill-rule="evenodd" clip-rule="evenodd"><path d="M758 895l-69 69V770c0-8-8-16-16-16-9 0-16 8-16 16v194l-70-69c-6-6-16-6-22 0s-6 16 0 22l96 97c2 1 4 3 6 3 1 1 3 1 5 1 0 0 0 1 1 1 2 0 4-1 6-2 1 0 2-1 3-2 1 0 2-1 2-1l96-96c7-7 7-17 0-23-6-6-16-6-22 0zM375 574h-27l-48-160c-3-7-5-16-8-26-3-11-4-18-4-20-3 15-7 30-12 47l-46 159h-28l-63-238h29l38 147c5 20 9 39 11 56 3-20 7-40 13-59l43-144h29l45 146c5 17 10 36 13 57 2-16 6-34 12-57l37-146h30l-64 238zm252-169c0 24-9 43-25 56s-40 19-70 19h-28v94h-28V336h62c59 0 89 23 89 69zm-123 51h24c25 0 43-4 54-12 11-7 16-20 16-38 0-15-5-27-15-35-11-7-27-11-49-11h-30v96zm266 187c-10-4-21-7-31-10V224c0-5-3-9-6-12L545 23c-3-3-7-5-11-5H79c-23 0-42 18-42 41v869c0 23 19 42 42 42h345c35 104 133 179 249 179 144 0 262-118 262-262 0-108-65-204-165-244zM549 72l135 136H549V72zM415 938H79c-5 0-10-5-10-10V59c0-5 5-9 10-9h438v174c0 8 7 16 16 16h174v387c-12-2-23-3-34-3-133 0-244 99-261 230-1 11-2 22-2 33 0 17 2 34 5 51zm258 179c-127 0-231-103-231-230 0-10 1-20 2-29 14-115 113-202 229-202 29 0 58 6 86 17 87 35 144 119 144 214 0 127-103 230-230 230z" fill="#21a385"/></svg>