<svg xmlns="http://www.w3.org/2000/svg" width="67" height="82" viewBox="0 0 972 1167" shape-rendering="geometricPrecision" text-rendering="geometricPrecision" image-rendering="optimizeQuality" fill-rule="evenodd" clip-rule="evenodd"><path d="M758 895l-69 69V770c0-8-8-16-16-16-9 0-16 8-16 16v194l-70-69c-6-6-16-6-22 0s-6 16 0 22l96 97c2 1 4 3 6 3 1 1 3 1 5 1 0 0 0 1 1 1 2 0 4-1 6-2 1 0 2-1 3-2 1 0 2-1 2-1l96-96c7-7 7-17 0-23-6-6-16-6-22 0zM170 499l29-3c2 12 5 22 10 30 5 7 13 13 24 18s23 7 37 7c12 0 23-1 32-5s16-9 20-15c5-6 7-13 7-20 0-8-2-14-6-20-5-5-12-10-22-14-6-2-20-6-42-12-22-5-38-10-46-14-12-6-20-14-26-23-5-9-8-18-8-29 0-13 3-24 10-34 7-11 17-19 30-24 13-6 28-8 44-8 17 0 33 3 47 8 13 6 23 14 31 25 7 11 11 24 11 38l-30 2c-1-15-7-26-16-34-10-7-24-11-42-11-19 0-33 3-42 10-8 7-13 16-13 26 0 8 3 15 9 21 7 5 22 11 48 17s43 11 53 15c14 6 24 14 31 24 6 10 9 21 9 34s-3 25-10 36c-8 11-18 20-32 26-13 6-29 9-46 9-21 0-39-3-54-9-14-6-26-16-34-28-8-13-13-27-13-43zm402-7l32 8c-6 26-18 45-36 59-17 14-38 20-63 20s-46-5-62-15c-16-11-29-26-37-46s-13-41-13-64c0-25 5-46 15-65 9-18 23-32 40-42 18-10 37-14 58-14 24 0 44 6 60 18s28 29 34 51l-31 7c-5-17-13-30-24-37-10-8-24-12-40-12-18 0-33 4-45 13-13 9-21 20-26 35s-8 30-8 46c0 20 3 38 9 53s15 27 27 34c13 8 26 11 41 11 18 0 32-5 45-15 12-10 20-25 24-45zm198 151c-10-4-21-7-31-10V224c0-5-3-9-6-12L545 23c-3-3-7-5-11-5H79c-23 0-42 18-42 41v869c0 23 19 42 42 42h345c35 104 133 179 249 179 144 0 262-118 262-262 0-108-65-204-165-244zM549 72l135 136H549V72zM415 938H79c-5 0-10-5-10-10V59c0-5 5-9 10-9h438v174c0 8 7 16 16 16h174v387c-12-2-23-3-34-3-133 0-244 99-261 230-1 11-2 22-2 33 0 17 2 34 5 51zm258 179c-127 0-231-103-231-230 0-10 1-20 2-29 14-115 113-202 229-202 29 0 58 6 86 17 87 35 144 119 144 214 0 127-103 230-230 230z"/></svg>