<svg xmlns="http://www.w3.org/2000/svg" width="67" height="82" viewBox="0 0 972 1167" shape-rendering="geometricPrecision" text-rendering="geometricPrecision" image-rendering="optimizeQuality" fill-rule="evenodd" clip-rule="evenodd"><path d="M758 895l-69 69V770c0-8-8-16-16-16-9 0-16 8-16 16v194l-70-69c-6-6-16-6-22 0s-6 16 0 22l96 97c2 1 4 3 6 3 1 1 3 1 5 1 0 0 0 1 1 1 2 0 4-1 6-2 1 0 2-1 3-2 1 0 2-1 2-1l96-96c7-7 7-17 0-23-6-6-16-6-22 0zM169 342h426c9 0 16-7 16-16 0-8-7-16-16-16H169c-9 0-16 8-16 16 0 9 7 16 16 16zm0 88h426c9 0 16-7 16-16s-7-16-16-16H169c-9 0-16 7-16 16s7 16 16 16zm0 87h426c9 0 16-7 16-16s-7-16-16-16H169c-9 0-16 7-16 16s7 16 16 16zm203 235c-4-7-5-15-3-23 4-12-1-25-11-33-6-4-10-11-12-19-2-13-11-23-23-25-8-1-15-6-20-12-7-11-20-15-32-12-8 2-16 1-22-3-11-6-25-5-35 3-6 6-13 8-21 8-13-1-25 6-30 18-3 7-9 13-16 16-12 5-19 16-19 29 1 8-2 15-7 21-9 10-11 24-5 35 4 7 4 15 2 23-3 12 1 25 11 32 7 5 11 12 12 20 2 12 12 22 24 25 8 1 15 5 19 12 7 10 20 15 33 12 7-2 15-1 22 3 11 6 25 4 34-4 6-5 14-8 22-7 13 1 24-7 29-18 4-8 9-13 17-16 11-5 19-16 18-29 0-8 3-16 8-21 9-10 10-24 5-35zM244 858c-58 0-105-47-105-105s47-104 105-104 105 46 105 104-47 105-105 105zm0-185c-44 0-81 36-81 80 0 45 37 81 81 81s80-36 80-81c0-44-36-80-80-80zm526-30c-10-4-21-7-31-10V224c0-5-3-9-6-12L545 23c-3-3-7-5-11-5H79c-23 0-42 18-42 41v869c0 23 19 42 42 42h345c35 104 133 179 249 179 144 0 262-118 262-262 0-108-65-204-165-244zM549 72l135 136H549V72zM415 938H79c-5 0-10-5-10-10V59c0-5 5-9 10-9h438v174c0 8 7 16 16 16h174v387c-12-2-23-3-34-3-133 0-244 99-261 230-1 11-2 22-2 33 0 17 2 34 5 51zm258 179c-127 0-231-103-231-230 0-10 1-20 2-29 14-115 113-202 229-202 29 0 58 6 86 17 87 35 144 119 144 214 0 127-103 230-230 230z"/></svg>